<svg xmlns="http://www.w3.org/2000/svg" width="822" height="411" fill="none"><path fill="#183E43" d="M447.8 394.2h-7c-2.8 0-5 2.2-5 5v6.6c0 2.8 2.2 5 5 5h7c2.8 0 5-2.2 5-5v-6.6c0-2.8-2.2-5-5-5z"/><path fill="#39F6EB" d="M447.8 328.8h-7c-2.8 0-5 2.2-5 5v6.6c0 2.8 2.2 5 5 5h7c2.8 0 5-2.2 5-5v-6.6c0-2.8-2.2-5-5-5z"/><path fill="#14272E" d="M447.8.8h-7c-2.8 0-5 2.2-5 5v6.6c0 2.8 2.2 5 5 5h7c2.8 0 5-2.2 5-5V5.8c0-2.8-2.2-5-5-5z"/><path fill="#183E43" d="M447.8 263.4h-7c-2.8 0-5 2.2-5 5v6.6c0 2.8 2.2 5 5 5h7c2.8 0 5-2.2 5-5v-6.6c0-2.8-2.2-5-5-5z"/><path fill="#216C6D" d="M481.2 230.2h-7c-2.8 0-5 2.2-5 5v6.6c0 2.8 2.2 5 5 5h7c2.8 0 5-2.2 5-5v-6.6c0-2.8-2.2-5-5-5z"/><path fill="#183E43" d="M481.2 296.1h-7c-2.8 0-5 2.2-5 5v6.6c0 2.8 2.2 5 5 5h7c2.8 0 5-2.2 5-5v-6.6c0-2.8-2.2-5-5-5z"/><path fill="#216C6D" d="M481.2 361.5h-7c-2.8 0-5 2.2-5 5v6.6c0 2.8 2.2 5 5 5h7c2.8 0 5-2.2 5-5v-6.6c0-2.8-2.2-5-5-5z"/><path fill="#14272E" d="M514.6 394.2h-7c-2.8 0-5 2.2-5 5v6.6c0 2.8 2.2 5 5 5h7c2.8 0 5-2.2 5-5v-6.6c0-2.8-2.2-5-5-5z"/><path fill="#39F6EB" d="M380.5 197.5h-7c-2.8 0-5 2.2-5 5v6.6c0 2.8 2.2 5 5 5h7c2.8 0 5-2.2 5-5v-6.6c0-2.8-2.2-5-5-5z"/><path fill="#289A97" d="M380.5 328.8h-7c-2.8 0-5 2.2-5 5v6.6c0 2.8 2.2 5 5 5h7c2.8 0 5-2.2 5-5v-6.6c0-2.8-2.2-5-5-5z"/><path fill="#14272E" d="M380.5.8h-7c-2.8 0-5 2.2-5 5v6.6c0 2.8 2.2 5 5 5h7c2.8 0 5-2.2 5-5V5.8c0-2.8-2.2-5-5-5z"/><path fill="#39F6EB" d="M413.9 361.5h-7c-2.8 0-5 2.2-5 5v6.6c0 2.8 2.2 5 5 5h7c2.8 0 5-2.2 5-5v-6.6c0-2.8-2.2-5-5-5z"/><path fill="#216C6D" d="M413.9 394.2h-7c-2.8 0-5 2.2-5 5v6.6c0 2.8 2.2 5 5 5h7c2.8 0 5-2.2 5-5v-6.6c0-2.8-2.2-5-5-5z"/><path fill="#14272E" d="M413.9 296.1h-7c-2.8 0-5 2.2-5 5v6.6c0 2.8 2.2 5 5 5h7c2.8 0 5-2.2 5-5v-6.6c0-2.8-2.2-5-5-5z"/><path fill="#289A97" d="M548.1 230.2h-7c-2.8 0-5 2.2-5 5v6.6c0 2.8 2.2 5 5 5h7c2.8 0 5-2.2 5-5v-6.6c0-2.8-2.3-5-5-5z"/><path fill="#216C6D" d="M581.5.8h-7c-2.8 0-5 2.2-5 5v6.6c0 2.8 2.2 5 5 5h7c2.8 0 5-2.2 5-5V5.8c0-2.8-2.3-5-5-5z"/><path fill="#183E43" d="M581.5 66.2h-7c-2.8 0-5 2.2-5 5v6.6c0 2.8 2.2 5 5 5h7c2.8 0 5-2.2 5-5v-6.6c0-2.8-2.3-5-5-5z"/><path fill="#216C6D" d="M614.9 296.1h-7c-2.8 0-5 2.2-5 5v6.6c0 2.8 2.2 5 5 5h7c2.8 0 5-2.2 5-5v-6.6c0-2.8-2.3-5-5-5z"/><path fill="#14272E" d="M614.9 230.2h-7c-2.8 0-5 2.2-5 5v6.6c0 2.8 2.2 5 5 5h7c2.8 0 5-2.2 5-5v-6.6c0-2.8-2.3-5-5-5z"/><path fill="#289A97" d="M648.8 394.2h-7c-2.8 0-5 2.2-5 5v6.6c0 2.8 2.2 5 5 5h7c2.8 0 5-2.2 5-5v-6.6c0-2.8-2.2-5-5-5z"/><path fill="#39F6EB" d="M581.5 197.5h-7c-2.8 0-5 2.2-5 5v6.6c0 2.8 2.2 5 5 5h7c2.8 0 5-2.2 5-5v-6.6c0-2.8-2.3-5-5-5zm33.4-164h-7c-2.8 0-5 2.2-5 5v6.6c0 2.8 2.2 5 5 5h7c2.8 0 5-2.2 5-5v-6.6c0-2.8-2.3-5-5-5z"/><path fill="#14272E" d="M380.5 394.2h-7c-2.8 0-5 2.2-5 5v6.6c0 2.8 2.2 5 5 5h7c2.8 0 5-2.2 5-5v-6.6c0-2.8-2.2-5-5-5zm201-130.8h-7c-2.8 0-5 2.2-5 5v6.6c0 2.8 2.2 5 5 5h7c2.8 0 5-2.2 5-5v-6.6c0-2.8-2.3-5-5-5z"/><path fill="#289A97" d="M548.1 361.5h-7c-2.8 0-5 2.2-5 5v6.6c0 2.8 2.2 5 5 5h7c2.8 0 5-2.2 5-5v-6.6c0-2.8-2.3-5-5-5z"/><path fill="#14272E" d="M514.6 197.5h-7c-2.8 0-5 2.2-5 5v6.6c0 2.8 2.2 5 5 5h7c2.8 0 5-2.2 5-5v-6.6c0-2.8-2.2-5-5-5z"/><path fill="#183E43" d="M514.6.8h-7c-2.8 0-5 2.2-5 5v6.6c0 2.8 2.2 5 5 5h7c2.8 0 5-2.2 5-5V5.8c0-2.8-2.2-5-5-5z"/><path fill="#39F6EB" d="M581.5 394.2h-7c-2.8 0-5 2.2-5 5v6.6c0 2.8 2.2 5 5 5h7c2.8 0 5-2.2 5-5v-6.6c0-2.8-2.3-5-5-5z"/><path fill="#183E43" d="M514.6 263.4h-7c-2.8 0-5 2.2-5 5v6.6c0 2.8 2.2 5 5 5h7c2.8 0 5-2.2 5-5v-6.6c0-2.8-2.2-5-5-5z"/><path fill="#39F6EB" d="M648.8 328.8h-7c-2.8 0-5 2.2-5 5v6.6c0 2.8 2.2 5 5 5h7c2.8 0 5-2.2 5-5v-6.6c0-2.8-2.2-5-5-5z"/><path fill="#14272E" d="M347.1 296.1h-7c-2.8 0-5 2.2-5 5v6.6c0 2.8 2.2 5 5 5h7c2.8 0 5-2.2 5-5v-6.6c0-2.8-2.3-5-5-5z"/><path fill="#289A97" d="M246.3 197.5h-7c-2.8 0-5 2.2-5 5v6.6c0 2.8 2.2 5 5 5h7c2.8 0 5-2.2 5-5v-6.6c0-2.8-2.2-5-5-5zm67.4 0h-7c-2.8 0-5 2.2-5 5v6.6c0 2.8 2.2 5 5 5h7c2.8 0 5-2.2 5-5v-6.6c0-2.8-2.3-5-5-5zm-100.8 98.6h-7c-2.8 0-5 2.2-5 5v6.6c0 2.8 2.2 5 5 5h7c2.8 0 5-2.2 5-5v-6.6c0-2.8-2.2-5-5-5z"/><path fill="#183E43" d="M280.3 296.1h-7c-2.8 0-5 2.2-5 5v6.6c0 2.8 2.2 5 5 5h7c2.8 0 5-2.2 5-5v-6.6c0-2.8-2.3-5-5-5z"/><path fill="#216C6D" d="M179.5 197.5h-7c-2.8 0-5 2.2-5 5v6.6c0 2.8 2.2 5 5 5h7c2.8 0 5-2.2 5-5v-6.6c0-2.8-2.2-5-5-5z"/><path fill="#289A97" d="M313.7.8h-7c-2.8 0-5 2.2-5 5v6.6c0 2.8 2.2 5 5 5h7c2.8 0 5-2.2 5-5V5.8c0-2.8-2.3-5-5-5z"/><path fill="#14272E" d="M313.7 328.8h-7c-2.8 0-5 2.2-5 5v6.6c0 2.8 2.2 5 5 5h7c2.8 0 5-2.2 5-5v-6.6c0-2.8-2.3-5-5-5zm-201-131.3h-7c-2.8 0-5 2.2-5 5v6.6c0 2.8 2.2 5 5 5h7c2.8 0 5-2.2 5-5v-6.6c0-2.8-2.2-5-5-5z"/><path fill="#39F6EB" d="M12 296.1H5c-2.8 0-5 2.2-5 5v6.6c0 2.8 2.2 5 5 5h7c2.8 0 5-2.2 5-5v-6.6c0-2.8-2.3-5-5-5z"/><path fill="#183E43" d="M146.1 296.1h-7c-2.8 0-5 2.2-5 5v6.6c0 2.8 2.2 5 5 5h7c2.8 0 5-2.2 5-5v-6.6c0-2.8-2.2-5-5-5zM715.6 66.2h-7c-2.8 0-5 2.2-5 5v6.6c0 2.8 2.2 5 5 5h7c2.8 0 5-2.2 5-5v-6.6c0-2.8-2.2-5-5-5z"/><path fill="#289A97" d="M816.4 33.5h-7c-2.8 0-5 2.2-5 5v6.6c0 2.8 2.2 5 5 5h7c2.8 0 5-2.2 5-5v-6.6c0-2.8-2.3-5-5-5z"/><path fill="#39F6EB" d="M782.5 394.2h-7c-2.8 0-5 2.2-5 5v6.6c0 2.8 2.2 5 5 5h7c2.8 0 5-2.2 5-5v-6.6c0-2.8-2.3-5-5-5z"/><path fill="#183E43" d="M782.5 328.8h-7c-2.8 0-5 2.2-5 5v6.6c0 2.8 2.2 5 5 5h7c2.8 0 5-2.2 5-5v-6.6c0-2.8-2.3-5-5-5z"/><path fill="#216C6D" d="M749 33.5h-7c-2.8 0-5 2.2-5 5v6.6c0 2.8 2.2 5 5 5h7c2.8 0 5-2.2 5-5v-6.6c0-2.8-2.2-5-5-5zm33.5 98.6h-7c-2.8 0-5 2.2-5 5v6.6c0 2.8 2.2 5 5 5h7c2.8 0 5-2.2 5-5v-6.6c0-2.8-2.3-5-5-5zm0 131.3h-7c-2.8 0-5 2.2-5 5v6.6c0 2.8 2.2 5 5 5h7c2.8 0 5-2.2 5-5v-6.6c0-2.8-2.3-5-5-5z"/><path fill="#183E43" d="M749 197.5h-7c-2.8 0-5 2.2-5 5v6.6c0 2.8 2.2 5 5 5h7c2.8 0 5-2.2 5-5v-6.6c0-2.8-2.2-5-5-5z"/><path fill="#39F6EB" d="M782.5 197.5h-7c-2.8 0-5 2.2-5 5v6.6c0 2.8 2.2 5 5 5h7c2.8 0 5-2.2 5-5v-6.6c0-2.8-2.3-5-5-5zm-66.9-65.4h-7c-2.8 0-5 2.2-5 5v6.6c0 2.8 2.2 5 5 5h7c2.8 0 5-2.2 5-5v-6.6c0-2.8-2.2-5-5-5z"/><path fill="#216C6D" d="M749 296.1h-7c-2.8 0-5 2.2-5 5v6.6c0 2.8 2.2 5 5 5h7c2.8 0 5-2.2 5-5v-6.6c0-2.8-2.2-5-5-5z"/><path fill="#39F6EB" d="M682.2 361.5h-7c-2.8 0-5 2.2-5 5v6.6c0 2.8 2.2 5 5 5h7c2.8 0 5-2.2 5-5v-6.6c0-2.8-2.2-5-5-5z"/><path fill="#216C6D" d="M715.6 328.8h-7c-2.8 0-5 2.2-5 5v6.6c0 2.8 2.2 5 5 5h7c2.8 0 5-2.2 5-5v-6.6c0-2.8-2.2-5-5-5zm-33.4-98.6h-7c-2.8 0-5 2.2-5 5v6.6c0 2.8 2.2 5 5 5h7c2.8 0 5-2.2 5-5v-6.6c0-2.8-2.2-5-5-5z"/><path fill="#183E43" d="M715.6 197.5h-7c-2.8 0-5 2.2-5 5v6.6c0 2.8 2.2 5 5 5h7c2.8 0 5-2.2 5-5v-6.6c0-2.8-2.2-5-5-5z"/><path fill="#14272E" d="M782.5 66.2h-7c-2.8 0-5 2.2-5 5v6.6c0 2.8 2.2 5 5 5h7c2.8 0 5-2.2 5-5v-6.6c0-2.8-2.3-5-5-5z"/><path fill="#39F6EB" d="M782.5.8h-7c-2.8 0-5 2.2-5 5v6.6c0 2.8 2.2 5 5 5h7c2.8 0 5-2.2 5-5V5.8c0-2.8-2.3-5-5-5zm33.9 328h-7c-2.8 0-5 2.2-5 5v6.6c0 2.8 2.2 5 5 5h7c2.8 0 5-2.2 5-5v-6.6c0-2.8-2.3-5-5-5z"/><path fill="#216C6D" d="M816.4 296.1h-7c-2.8 0-5 2.2-5 5v6.6c0 2.8 2.2 5 5 5h7c2.8 0 5-2.2 5-5v-6.6c0-2.8-2.3-5-5-5zm0-131.3h-7c-2.8 0-5 2.2-5 5v6.6c0 2.8 2.2 5 5 5h7c2.8 0 5-2.2 5-5v-6.6c0-2.8-2.3-5-5-5z"/><path fill="#14272E" d="M816.4 99.4h-7c-2.8 0-5 2.2-5 5v6.6c0 2.8 2.2 5 5 5h7c2.8 0 5-2.2 5-5v-6.6c0-2.8-2.3-5-5-5z"/></svg>